<?xml version="1.0" encoding="UTF-8"?>
<svg version="1.1" xmlns="http://www.w3.org/2000/svg" width="512" height="512">
<path d="M0 0 C18.19487481 5.44480551 36.81369115 9.3047051 55.8671875 9.48828125 C57.13699211 9.50297203 57.13699211 9.50297203 58.43244934 9.51795959 C84.43089788 9.75656465 108.43146907 7.75077567 133.59375 0.71484375 C134.45226562 0.47749512 135.31078125 0.24014648 136.1953125 -0.00439453 C137.87006437 -0.49318393 139.53315514 -1.02432464 141.1796875 -1.60107422 C160.42415071 -7.91103764 178.6150657 -1.59447324 197.10784912 4.18609619 C200.44847433 5.22349026 203.79899515 6.22785116 207.1484375 7.23632812 C218.72610809 10.73535743 230.2656258 14.35789224 241.75390625 18.140625 C242.58284393 18.41141373 243.41178162 18.68220245 244.26583862 18.9611969 C260.72239382 24.4655341 273.20779859 35.28667019 281.125 50.72265625 C284.70349539 58.49039985 287.87124345 66.60040771 286.75 75.25 C285.375 77.25 285.375 77.25 283.75 78.25 C283.09 78.25 282.43 78.25 281.75 78.25 C282.1109375 79.37019531 282.471875 80.49039063 282.84375 81.64453125 C283.3127259 83.11711558 283.7814635 84.58977581 284.25 86.0625 C284.48847656 86.80048828 284.72695313 87.53847656 284.97265625 88.29882812 C285.94940136 91.38255196 286.75 93.99495809 286.75 97.25 C287.6575 97.146875 288.565 97.04375 289.5 96.9375 C292.75 97.25 292.75 97.25 294.82366943 99.37841797 C296.87591493 102.43770146 297.83371558 104.96746705 298.82128906 108.5078125 C299.17555969 109.75522217 299.52983032 111.00263184 299.89483643 112.2878418 C300.26868495 113.65015864 300.64227363 115.01254682 301.015625 116.375 C301.41569984 117.80082592 301.81682403 119.22635777 302.21893311 120.65161133 C303.27862861 124.41869495 304.3238038 128.18965999 305.36602783 131.96160889 C306.39796883 135.68651154 307.44365127 139.4075463 308.48828125 143.12890625 C309.72319009 147.5307354 310.95404226 151.93356526 312.1685791 156.34106445 C313.92413367 162.71108586 315.6852957 169.07683249 317.55395889 175.41477966 C318.13392538 177.38467291 318.70636802 179.3566005 319.27655029 181.3293457 C319.97005161 183.72026586 320.67718812 186.10729878 321.40167236 188.48901367 C324.74190642 200.132499 325.73441332 212.30948101 319.75 223.25 C313.19871356 232.72940093 304.33518519 237.03110109 293.640625 240.5546875 C292.79901825 240.83985229 291.9574115 241.12501709 291.09030151 241.41882324 C288.39630628 242.32937333 285.69836925 243.2275048 283 244.125 C281.14803905 244.74750891 279.2963142 245.37072063 277.44482422 245.99462891 C273.8349258 247.20956871 270.22343789 248.41957479 266.61035156 249.625 C262.56588676 250.9750496 258.52756708 252.34179314 254.4921875 253.71875 C252.61988641 254.35444578 250.74750207 254.98989648 248.875 255.625 C248.05805664 255.90456543 247.24111328 256.18413086 246.39941406 256.47216797 C243.39182543 257.48024985 240.94548433 258.25 237.75 258.25 C237.75368717 259.39006437 237.75737434 260.53012875 237.76117325 261.70474052 C237.85000536 289.45601136 237.91571914 317.20726374 237.95724869 344.95864677 C237.96132801 347.63128548 237.96549329 350.30392404 237.96972656 352.9765625 C237.9707758 353.64084649 237.97182505 354.30513048 237.97290608 354.98954429 C237.98921285 365.06631263 238.01728744 375.14300524 238.05175781 385.21972656 C238.0916498 396.9180737 238.11743862 408.61635278 238.12635398 420.31476605 C238.13156466 426.50793263 238.14379545 432.70090451 238.17292023 438.89400864 C238.20012639 444.72654518 238.20843435 450.55880731 238.20243073 456.39140129 C238.20352862 458.52869217 238.21145125 460.66599249 238.2268219 462.80322838 C238.24683098 465.72965637 238.24189926 468.65505892 238.23101807 471.58151245 C238.24266943 472.42006551 238.2543208 473.25861856 238.26632524 474.12258232 C238.16441705 484.31709045 234.05513301 491.79793559 227.12109375 499.05078125 C218.66355941 506.89524885 210.53592198 508.54922271 199.2515564 508.52415466 C198.08700066 508.52939134 196.92244493 508.53462802 195.72259963 508.54002339 C192.49843432 508.55241596 189.27440432 508.55586731 186.05021977 508.55542648 C182.56947042 508.55707763 179.0887605 508.5701498 175.60803223 508.58161926 C168.00038695 508.60444662 160.39276962 508.61238762 152.78509474 508.61744571 C148.0313739 508.62070575 143.27766113 508.62723013 138.52394485 508.6344471 C125.35251565 508.65401107 112.18109394 508.67041613 99.00964928 508.67332363 C98.16714193 508.6735112 97.32463458 508.67369877 96.45659671 508.67389202 C94.74874981 508.67425827 93.04090292 508.67462197 91.33305602 508.67498314 C90.48532038 508.67516595 89.63758475 508.67534876 88.76416016 508.67553711 C87.49099752 508.67580793 87.49099752 508.67580793 86.19211443 508.67608423 C72.44623049 508.67962408 58.70050338 508.70663549 44.95467381 508.744035 C30.82926252 508.78215846 16.70392896 508.80148141 2.5784651 508.80178314 C-5.34730069 508.80236685 -13.27287944 508.81080256 -21.19859695 508.83978081 C-27.94901314 508.86434896 -34.69917408 508.87154122 -41.44962294 508.85653328 C-44.89024081 508.84938606 -48.33035523 508.8501257 -51.77091599 508.87294388 C-55.51093125 508.89342635 -59.24965477 508.88283723 -62.98965454 508.86473083 C-64.06341894 508.8779308 -65.13718333 508.89113077 -66.24348605 508.90473074 C-75.2897448 508.80515282 -83.02657233 506.24008315 -90.43359375 500.99609375 C-91.17738281 500.23425781 -91.92117187 499.47242188 -92.6875 498.6875 C-93.44933594 497.94371094 -94.21117188 497.19992187 -94.99609375 496.43359375 C-102.1274744 486.36067308 -103.00418175 476.37475636 -102.9140625 464.46875 C-102.91743885 462.88122182 -102.92229826 461.29369618 -102.92855835 459.70617676 C-102.93587412 456.40477501 -102.92538637 453.10405597 -102.90185547 449.80273438 C-102.87318119 445.57450704 -102.88992038 441.34785384 -102.91971779 437.11968231 C-102.93777588 433.85278414 -102.93204308 430.58626057 -102.91907883 427.3193512 C-102.91575032 425.75964672 -102.9198124 424.19990794 -102.93147659 422.64024353 C-102.9441831 420.46692312 -102.92482671 418.29617542 -102.89697266 416.12304688 C-102.89100571 414.27205383 -102.89100571 414.27205383 -102.88491821 412.38366699 C-102.25 409.25 -102.25 409.25 -99.83456421 406.82043457 C-97.25 405.25 -97.25 405.25 -95.25 405.25 C-95.25 398.98 -95.25 392.71 -95.25 386.25 C-96.9 385.92 -98.55 385.59 -100.25 385.25 C-102.44634053 381.95548921 -102.49823757 381.00347961 -102.49050903 377.18171692 C-102.49325836 376.13423782 -102.49600769 375.08675873 -102.49884033 374.00753784 C-102.4880545 372.28447922 -102.4880545 372.28447922 -102.47705078 370.52661133 C-102.47734283 369.3167305 -102.47763489 368.10684967 -102.47793579 366.86030579 C-102.47678035 363.54231005 -102.46674297 360.22456252 -102.45278788 356.90661073 C-102.44029393 353.4392687 -102.43911107 349.97192344 -102.43673706 346.50456238 C-102.43051836 339.93851001 -102.41410228 333.37252416 -102.39403808 326.80650109 C-102.37169121 319.3313715 -102.36068871 311.85623875 -102.35064721 304.38108408 C-102.32973637 289.00401752 -102.29455283 273.62701733 -102.25 258.25 C-102.83216561 258.12650838 -103.41433123 258.00301676 -104.01413822 257.87578297 C-108.44178678 256.91772222 -112.76380197 255.87208066 -117.07006836 254.44995117 C-118.11823227 254.10586716 -119.16639618 253.76178314 -120.24632263 253.40727234 C-121.3496846 253.03955215 -122.45304657 252.67183197 -123.58984375 252.29296875 C-125.33304649 251.71570793 -125.33304649 251.71570793 -127.11146545 251.12678528 C-129.55872188 250.31462026 -132.0051972 249.50009815 -134.45092773 248.68334961 C-138.169505 247.4434999 -141.8921606 246.21650536 -145.61523438 244.99023438 C-148.00286417 244.1960938 -150.39024251 243.40119672 -152.77734375 242.60546875 C-153.87868149 242.24382126 -154.98001923 241.88217377 -156.11473083 241.50956726 C-168.49822527 237.34519948 -178.89968388 233.12294149 -185.125 221.0625 C-190.5392088 209.67831924 -188.68120087 197.62307615 -185.19921875 185.89453125 C-184.87333771 184.74162598 -184.54745667 183.5887207 -184.21170044 182.40087891 C-183.32272835 179.26874928 -182.41785738 176.14178316 -181.50543594 173.01642227 C-180.54142933 169.69986164 -179.59823843 166.3773899 -178.65307617 163.05541992 C-177.24938045 158.12899158 -175.83860496 153.20468233 -174.41959476 148.28264332 C-171.82558273 139.28392784 -169.27530094 130.27343381 -166.74406242 121.25687599 C-165.05803693 115.25245699 -163.3670067 109.24944341 -161.67697525 103.24615097 C-161.0689095 101.08527733 -160.46160302 98.92419127 -159.8543396 96.76309204 C-152.5336395 70.73131627 -152.5336395 70.73131627 -148.89453125 59.72265625 C-148.66828568 59.03524857 -148.4420401 58.34784088 -148.2089386 57.63960266 C-142.47356975 40.78969681 -130.95920799 29.14371191 -115.27084351 21.18737793 C-108.92695824 18.2447364 -102.1388362 16.43490944 -95.4375 14.5 C-93.74346523 13.99955523 -92.04978768 13.49789984 -90.35644531 12.99511719 C-87.70967549 12.21088223 -85.06222765 11.42944044 -82.41226196 10.65606689 C-76.92150362 9.05286692 -71.45329789 7.39075533 -65.99702454 5.67388916 C-62.3766364 4.53702127 -58.74964327 3.42222944 -55.12149048 2.3104248 C-53.40491062 1.77975002 -51.69087804 1.24074706 -49.97982788 0.69250488 C-32.60438004 -4.85504799 -17.54488128 -5.65831151 0 0 Z " fill="#F97F83" transform="translate(188.25,3.75)"/>
<path d="M0 0 C18.19487481 5.44480551 36.81369115 9.3047051 55.8671875 9.48828125 C57.13699211 9.50297203 57.13699211 9.50297203 58.43244934 9.51795959 C84.43089788 9.75656465 108.43146907 7.75077567 133.59375 0.71484375 C134.45226562 0.47749512 135.31078125 0.24014648 136.1953125 -0.00439453 C137.87006437 -0.49318393 139.53315514 -1.02432464 141.1796875 -1.60107422 C160.42415071 -7.91103764 178.6150657 -1.59447324 197.10784912 4.18609619 C200.44847433 5.22349026 203.79899515 6.22785116 207.1484375 7.23632812 C218.72610809 10.73535743 230.2656258 14.35789224 241.75390625 18.140625 C242.58284393 18.41141373 243.41178162 18.68220245 244.26583862 18.9611969 C260.72239382 24.4655341 273.20779859 35.28667019 281.125 50.72265625 C284.70349539 58.49039985 287.87124345 66.60040771 286.75 75.25 C285.75 77.25 285.75 77.25 283.75 78.25 C276.75713464 79.02698504 276.75713464 79.02698504 273.61328125 76.6015625 C271.41680277 73.82948693 270.74713768 71.60544909 269.875 68.1875 C265.93660571 54.57103603 259.00234952 44.58787447 246.52734375 37.609375 C236.55327254 32.72755111 225.73696567 30.05979323 215.07397461 27.1262207 C206.26368246 24.69811542 197.50165134 22.12981987 188.75 19.5 C187.49251953 19.12327148 186.23503906 18.74654297 184.93945312 18.35839844 C179.1204846 16.6051874 173.33202251 14.82762975 167.6171875 12.75683594 C165.42907386 12.07535729 165.42907386 12.07535729 161.75 12.25 C160.04006148 14.6244066 158.61553709 16.90087025 157.1875 19.4375 C152.41465363 27.45552704 147.09190663 34.42056692 140.75 41.25 C140.20827148 41.83555664 139.66654297 42.42111328 139.10839844 43.02441406 C121.92755121 61.38270371 99.13175409 76.58656866 73.21875 77.453125 C57.99692466 77.69287486 44.64296935 75.97550384 30.75 69.25 C29.84894531 68.81945312 28.94789063 68.38890625 28.01953125 67.9453125 C4.71887979 56.04281522 -13.65824122 34.83015815 -26.25 12.25 C-31.79969767 12.86744981 -36.77306197 14.24305904 -42.0625 16 C-48.32243898 18.02803834 -54.58867469 19.95718343 -60.9375 21.6875 C-91.78389795 28.6729845 -91.78389795 28.6729845 -119.25 43.25 C-120.16458984 43.98089844 -120.16458984 43.98089844 -121.09765625 44.7265625 C-133.45476883 55.75290911 -136.28888964 72.9736419 -140.25 88.25 C-141.4078247 92.62737853 -142.57776834 97.00146026 -143.75 101.375 C-144.0380249 102.45587891 -144.3260498 103.53675781 -144.62280273 104.65039062 C-146.79866231 112.7528367 -149.20550824 120.76721732 -151.6953125 128.77783203 C-153.73312 135.39271051 -155.54437127 142.04233077 -157.25 148.75 C-159.24299572 156.58706828 -161.42686588 164.3357498 -163.8125 172.0625 C-165.98433164 179.11183628 -168.15425209 186.15918679 -170.1875 193.25 C-170.39898682 193.9613208 -170.61047363 194.6726416 -170.82836914 195.40551758 C-172.53341644 201.44171862 -173.23494612 207.01267629 -170.6875 212.875 C-170.39746094 213.58914062 -170.10742188 214.30328125 -169.80859375 215.0390625 C-164.72657387 222.24814333 -156.15181114 224.29626208 -148.16796875 226.859375 C-146.25772642 227.48915108 -144.34748427 228.11892771 -142.437253 228.74873734 C-139.78153591 229.62084638 -137.12218628 230.4815895 -134.46289062 231.3427124 C-130.43148947 232.65099829 -126.40547664 233.9757525 -122.37878132 235.29843521 C-119.24976566 236.32597161 -116.11971842 237.35007221 -112.9875946 238.36810303 C-111.86915665 238.73228333 -110.75071869 239.09646362 -109.59838867 239.47167969 C-108.11782234 239.95202667 -108.11782234 239.95202667 -106.60734558 240.44207764 C-104.25 241.25 -104.25 241.25 -102.25 242.25 C-102.26110306 241.44677811 -102.27220612 240.64355621 -102.28364563 239.81599426 C-102.38391613 232.23879159 -102.45999892 224.66191149 -102.50906086 217.08421803 C-102.53513253 213.18858809 -102.57048427 209.29350727 -102.62719727 205.39819336 C-102.68160664 201.63747974 -102.71143883 197.87729356 -102.72438622 194.11621666 C-102.73361035 192.68285508 -102.75162371 191.24952172 -102.77865028 189.81638527 C-102.81504759 187.80601894 -102.81704327 185.79511953 -102.81762695 183.78442383 C-102.82873001 182.64080887 -102.83983307 181.49719391 -102.85127258 180.31892395 C-102.05685097 176.26415814 -100.47034121 174.75762733 -97.25 172.25 C-93.57296748 172.18660289 -91.32569482 172.25894835 -88.5632925 174.8039856 C-86.69251769 178.28831383 -86.83257224 181.59109339 -86.86231995 185.44873047 C-86.85693441 186.28237059 -86.85154887 187.1160107 -86.84600013 187.97491264 C-86.83167541 190.7724871 -86.83883534 193.5695914 -86.84594727 196.3671875 C-86.8402461 198.37111798 -86.83328283 200.3750452 -86.82514954 202.37896729 C-86.80717614 207.82515296 -86.80839424 213.27117789 -86.81409192 218.71738434 C-86.81717737 223.26039992 -86.81109858 227.80338434 -86.80505317 232.34639549 C-86.79099616 243.06103471 -86.79257937 253.77559421 -86.80395508 264.49023438 C-86.81544109 275.55342278 -86.80135509 286.6163689 -86.7745586 297.67952538 C-86.75242778 307.17090249 -86.74575821 316.66220341 -86.75163502 326.15360451 C-86.75501163 331.82558619 -86.75254271 337.4974125 -86.73538399 343.16937256 C-86.71995836 348.50132264 -86.72382163 353.83291269 -86.74268913 359.16484833 C-86.74638701 361.12404052 -86.74323186 363.08325913 -86.73280334 365.04242706 C-86.71967366 367.71246083 -86.731069 370.38128849 -86.74879456 373.05126953 C-86.73438705 374.22032994 -86.73438705 374.22032994 -86.71968848 375.41300774 C-86.76722793 378.88177429 -86.97253989 380.87497821 -89.06257534 383.69992065 C-92.16322239 385.89713871 -94.47340235 386.25 -98.25 386.25 C-100.84141812 384.26594148 -102.08686528 383.05499732 -102.74219131 379.82125473 C-102.73666056 378.45515753 -102.73666056 378.45515753 -102.73101807 377.0614624 C-102.73651672 376.01260864 -102.74201538 374.96375488 -102.74768066 373.88311768 C-102.73329956 372.7380072 -102.71891846 371.59289673 -102.70410156 370.41308594 C-102.70468567 369.20305908 -102.70526978 367.99303223 -102.70587158 366.74633789 C-102.70356302 363.43223933 -102.68351078 360.11913871 -102.65557575 356.80521679 C-102.63056223 353.34057241 -102.62822016 349.87591459 -102.62347412 346.41119385 C-102.61104412 339.85216181 -102.57822245 333.29339661 -102.53807616 326.73448205 C-102.49335899 319.26661264 -102.47137159 311.79873045 -102.45129442 304.33076048 C-102.40948963 288.97035247 -102.33913741 273.61021065 -102.25 258.25 C-102.83216561 258.12650838 -103.41433123 258.00301676 -104.01413822 257.87578297 C-108.44178678 256.91772222 -112.76380197 255.87208066 -117.07006836 254.44995117 C-118.11823227 254.10586716 -119.16639618 253.76178314 -120.24632263 253.40727234 C-121.3496846 253.03955215 -122.45304657 252.67183197 -123.58984375 252.29296875 C-125.33304649 251.71570793 -125.33304649 251.71570793 -127.11146545 251.12678528 C-129.55872188 250.31462026 -132.0051972 249.50009815 -134.45092773 248.68334961 C-138.169505 247.4434999 -141.8921606 246.21650536 -145.61523438 244.99023438 C-148.00286417 244.1960938 -150.39024251 243.40119672 -152.77734375 242.60546875 C-153.87868149 242.24382126 -154.98001923 241.88217377 -156.11473083 241.50956726 C-168.49822527 237.34519948 -178.89968388 233.12294149 -185.125 221.0625 C-190.5392088 209.67831924 -188.68120087 197.62307615 -185.19921875 185.89453125 C-184.87333771 184.74162598 -184.54745667 183.5887207 -184.21170044 182.40087891 C-183.32272835 179.26874928 -182.41785738 176.14178316 -181.50543594 173.01642227 C-180.54142933 169.69986164 -179.59823843 166.3773899 -178.65307617 163.05541992 C-177.24938045 158.12899158 -175.83860496 153.20468233 -174.41959476 148.28264332 C-171.82558273 139.28392784 -169.27530094 130.27343381 -166.74406242 121.25687599 C-165.05803693 115.25245699 -163.3670067 109.24944341 -161.67697525 103.24615097 C-161.0689095 101.08527733 -160.46160302 98.92419127 -159.8543396 96.76309204 C-152.5336395 70.73131627 -152.5336395 70.73131627 -148.89453125 59.72265625 C-148.66828568 59.03524857 -148.4420401 58.34784088 -148.2089386 57.63960266 C-142.47356975 40.78969681 -130.95920799 29.14371191 -115.27084351 21.18737793 C-108.92695824 18.2447364 -102.1388362 16.43490944 -95.4375 14.5 C-93.74346523 13.99955523 -92.04978768 13.49789984 -90.35644531 12.99511719 C-87.70967549 12.21088223 -85.06222765 11.42944044 -82.41226196 10.65606689 C-76.92150362 9.05286692 -71.45329789 7.39075533 -65.99702454 5.67388916 C-62.3766364 4.53702127 -58.74964327 3.42222944 -55.12149048 2.3104248 C-53.40491062 1.77975002 -51.69087804 1.24074706 -49.97982788 0.69250488 C-32.60438004 -4.85504799 -17.54488128 -5.65831151 0 0 Z " fill="#010000" transform="translate(188.25,3.75)"/>
<path d="M0 0 C3.33980254 3.48597782 4.78448229 6.64474767 6.07128906 11.2578125 C6.42555969 12.50522217 6.77983032 13.75263184 7.14483643 15.0378418 C7.51868495 16.40015864 7.89227363 17.76254682 8.265625 19.125 C8.66569984 20.55082592 9.06682403 21.97635777 9.46893311 23.40161133 C10.52862861 27.16869495 11.5738038 30.93965999 12.61602783 34.71160889 C13.64796883 38.43651154 14.69365127 42.1575463 15.73828125 45.87890625 C16.97319009 50.2807354 18.20404226 54.68356526 19.4185791 59.09106445 C21.17413367 65.46108586 22.9352957 71.82683249 24.80395889 78.16477966 C25.38392538 80.13467291 25.95636802 82.1066005 26.52655029 84.0793457 C27.22005161 86.47026586 27.92718812 88.85729878 28.65167236 91.23901367 C31.99190642 102.882499 32.98441332 115.05948101 27 126 C20.44871356 135.47940093 11.58518519 139.78110109 0.890625 143.3046875 C0.04901825 143.58985229 -0.7925885 143.87501709 -1.65969849 144.16882324 C-4.35369372 145.07937333 -7.05163075 145.9775048 -9.75 146.875 C-11.60196095 147.49750891 -13.4536858 148.12072063 -15.30517578 148.74462891 C-18.9150742 149.95956871 -22.52656211 151.16957479 -26.13964844 152.375 C-30.18411324 153.7250496 -34.22243292 155.09179314 -38.2578125 156.46875 C-40.13011359 157.10444578 -42.00249793 157.73989648 -43.875 158.375 C-45.10041504 158.79434814 -45.10041504 158.79434814 -46.35058594 159.22216797 C-49.35817457 160.23024985 -51.80451567 161 -55 161 C-54.99631283 162.14006437 -54.99262566 163.28012875 -54.98882675 164.45474052 C-54.89999464 192.20601136 -54.83428086 219.95726374 -54.79275131 247.70864677 C-54.78867199 250.38128548 -54.78450671 253.05392404 -54.78027344 255.7265625 C-54.7792242 256.39084649 -54.77817495 257.05513048 -54.77709392 257.73954429 C-54.76078715 267.81631263 -54.73271256 277.89300524 -54.69824219 287.96972656 C-54.6583502 299.6680737 -54.63256138 311.36635278 -54.62364602 323.06476605 C-54.61843534 329.25793263 -54.60620455 335.45090451 -54.57707977 341.64400864 C-54.54987361 347.47654518 -54.54156565 353.30880731 -54.54756927 359.14140129 C-54.54647138 361.27869217 -54.53854875 363.41599249 -54.5231781 365.55322838 C-54.50316902 368.47965637 -54.50810074 371.40505892 -54.51898193 374.33151245 C-54.50733057 375.17006551 -54.4956792 376.00861856 -54.48367476 376.87258232 C-54.58558295 387.06709045 -58.69486699 394.54793559 -65.62890625 401.80078125 C-74.08644059 409.64524885 -82.21407802 411.29922271 -93.4984436 411.27415466 C-95.24527721 411.28200968 -95.24527721 411.28200968 -97.02740037 411.29002339 C-100.25156568 411.30241596 -103.47559568 411.30586731 -106.69978023 411.30542648 C-110.18052958 411.30707763 -113.6612395 411.3201498 -117.14196777 411.33161926 C-124.74961305 411.35444662 -132.35723038 411.36238762 -139.96490526 411.36744571 C-144.7186261 411.37070575 -149.47233887 411.37723013 -154.22605515 411.3844471 C-167.39748435 411.40401107 -180.56890606 411.42041613 -193.74035072 411.42332363 C-194.58285807 411.4235112 -195.42536542 411.42369877 -196.29340329 411.42389202 C-198.00125019 411.42425827 -199.70909708 411.42462197 -201.41694398 411.42498314 C-202.26467962 411.42516595 -203.11241525 411.42534876 -203.98583984 411.42553711 C-204.83461493 411.42571766 -205.68339002 411.42589821 -206.55788557 411.42608423 C-220.30376951 411.42962408 -234.04949662 411.45663549 -247.79532619 411.494035 C-261.92073748 411.53215846 -276.04607104 411.55148141 -290.1715349 411.55178314 C-298.09730069 411.55236685 -306.02287944 411.56080256 -313.94859695 411.58978081 C-320.69901314 411.61434896 -327.44917408 411.62154122 -334.19962294 411.60653328 C-337.64024081 411.59938606 -341.08035523 411.6001257 -344.52091599 411.62294388 C-348.26093125 411.64342635 -351.99965477 411.63283723 -355.73965454 411.61473083 C-357.35030114 411.63453079 -357.35030114 411.63453079 -358.99348605 411.65473074 C-368.0397448 411.55515282 -375.77657233 408.99008315 -383.18359375 403.74609375 C-384.29927734 402.60333984 -384.29927734 402.60333984 -385.4375 401.4375 C-386.58025391 400.32181641 -386.58025391 400.32181641 -387.74609375 399.18359375 C-394.8774744 389.11067308 -395.75418175 379.12475636 -395.6640625 367.21875 C-395.66743885 365.63122182 -395.67229826 364.04369618 -395.67855835 362.45617676 C-395.68587412 359.15477501 -395.67538637 355.85405597 -395.65185547 352.55273438 C-395.62318119 348.32450704 -395.63992038 344.09785384 -395.66971779 339.86968231 C-395.68777588 336.60278414 -395.68204308 333.33626057 -395.66907883 330.0693512 C-395.66575032 328.50964672 -395.6698124 326.94990794 -395.68147659 325.39024353 C-395.6941831 323.21692312 -395.67482671 321.04617542 -395.64697266 318.87304688 C-395.64299469 317.63905151 -395.63901672 316.40505615 -395.63491821 315.13366699 C-395 312 -395 312 -392.68612671 309.53527832 C-390 308 -390 308 -386.375 308.5625 C-381.8091946 310.50719489 -381.8091946 310.50719489 -380 313 C-379.62818909 315.85050964 -379.62818909 315.85050964 -379.63110352 319.36401367 C-379.62422012 320.67935593 -379.61733673 321.99469818 -379.61024475 323.34989929 C-379.61342272 324.05309484 -379.61660069 324.7562904 -379.61987495 325.48079491 C-379.62899249 327.68885404 -379.61875264 329.89606509 -379.60325623 332.1040802 C-379.56318903 338.38130351 -379.56194467 344.6584611 -379.56420898 350.93579102 C-379.56426032 354.77792122 -379.54497136 358.61959758 -379.51487541 362.46160316 C-379.50411243 364.62649806 -379.51614647 366.7905025 -379.52870178 368.95536804 C-379.50842969 376.85537194 -379.31943748 383.50513817 -373.55274963 389.50602722 C-369.3129874 393.24398919 -365.81511222 395.24782468 -360.17290878 395.25726891 C-359.19801081 395.2637178 -358.22311285 395.27016669 -357.21867251 395.276811 C-356.15020626 395.2737138 -355.08174001 395.2706166 -353.980896 395.26742554 C-352.27526957 395.27422221 -352.27526957 395.27422221 -350.53518605 395.28115618 C-346.71059098 395.2938546 -342.88613731 395.29217628 -339.06152344 395.29052734 C-336.32517456 395.29542079 -333.58883572 395.30325708 -330.85249329 395.31088257 C-324.18209719 395.32750114 -317.51173644 395.33299253 -310.84132138 395.33410732 C-305.41861557 395.33505753 -299.99592142 395.33916643 -294.5732193 395.34550858 C-279.19820085 395.36312441 -263.82321033 395.37234707 -248.44818172 395.37084763 C-247.61917335 395.37076772 -246.79016499 395.3706878 -245.93603516 395.37060547 C-245.10601412 395.37052371 -244.27599309 395.37044195 -243.42081991 395.37035771 C-229.97282228 395.36954502 -216.52493672 395.38867737 -203.0769715 395.4168822 C-189.26804671 395.44561544 -175.45917655 395.45942221 -161.65022111 395.45769465 C-153.89784658 395.45703083 -146.14558948 395.46251932 -138.39324188 395.48405075 C-131.79163796 395.50226851 -125.19020467 395.5066052 -118.58858648 395.4930319 C-115.22138059 395.4865046 -111.85476897 395.48855173 -108.48755074 395.5037384 C-104.83375377 395.51915035 -101.18081673 395.50990805 -97.52703857 395.49447632 C-95.93772353 395.50990701 -95.93772353 395.50990701 -94.31630111 395.52564943 C-87.38938905 395.4609899 -81.69592624 394.4310357 -76.47910953 389.58811319 C-72.42681399 385.02257739 -70.74937524 380.75415518 -70.75225353 374.71351624 C-70.74787153 373.66162581 -70.74348954 372.60973539 -70.73897475 371.52596951 C-70.74432008 370.37665982 -70.74966542 369.22735014 -70.75517273 368.04321289 C-70.75290816 366.81740289 -70.75064358 365.59159288 -70.74831039 364.32863712 C-70.74392861 360.92903461 -70.74844997 357.52965191 -70.756621 354.13007021 C-70.7632116 350.46267537 -70.75820092 346.79529536 -70.75439453 343.12789917 C-70.74917246 336.77372209 -70.75066518 330.4195755 -70.75617027 324.06539917 C-70.76438263 314.0241242 -70.75315669 303.98291504 -70.7389679 293.94165039 C-70.73436692 290.50621048 -70.72991656 287.07077039 -70.72552967 283.6353302 C-70.72443153 282.77681991 -70.72333339 281.91830961 -70.72220197 281.03378385 C-70.7100303 271.26373607 -70.70247626 261.49368619 -70.6965332 251.72363281 C-70.69598514 250.83058744 -70.69543708 249.93754207 -70.69487242 249.01743472 C-70.68640791 234.536105 -70.68975403 220.05479386 -70.69568755 205.57346404 C-70.7013012 190.70792768 -70.68779081 175.84248506 -70.65813476 160.97697735 C-70.64057691 151.80595515 -70.6389798 142.63520363 -70.65777991 133.46418262 C-70.66936861 127.18238731 -70.66296615 120.90077501 -70.6423107 114.61900353 C-70.63096944 110.99295862 -70.62786141 107.36738496 -70.64648628 103.74135971 C-70.66647823 99.81292856 -70.64803382 95.88521851 -70.6257782 91.95678711 C-70.6378157 90.80747743 -70.64985319 89.65816774 -70.66225547 88.47403049 C-70.57325904 80.80400659 -70.57325904 80.80400659 -67.68745136 76.75660706 C-65 75 -65 75 -61.375 74.9375 C-57.60000026 76.12592584 -56.89491491 76.64644593 -55 80 C-54.60127258 82.91070557 -54.60127258 82.91070557 -54.56762695 86.32910156 C-54.54783279 87.61012756 -54.52803864 88.89115356 -54.50764465 90.21099854 C-54.50087537 91.60420586 -54.49442845 92.99741479 -54.48828125 94.390625 C-54.47143132 95.81981957 -54.45328065 97.24899935 -54.43388367 98.67816162 C-54.38641104 102.43293638 -54.3565843 106.18765116 -54.33044434 109.94262695 C-54.30062478 113.77697595 -54.2540993 117.61111836 -54.20898438 121.4453125 C-54.12298255 128.9634391 -54.05562374 136.48158077 -54 144 C-46.25918423 141.47388616 -38.52225644 138.93632402 -30.78997517 136.38422012 C-27.19911514 135.19942306 -23.60706351 134.01855258 -20.01196289 132.84667969 C-16.53997472 131.71477609 -13.0715471 130.57252837 -9.60530663 129.42314911 C-8.28489965 128.98731158 -6.96326946 128.55516133 -5.64040565 128.12683868 C-3.78218101 127.52446448 -1.92869889 126.90752022 -0.07543945 126.29003906 C0.97935104 125.94362366 2.03414154 125.59720825 3.12089539 125.24029541 C7.944922 123.16214304 11.22219347 120.53047357 13.3125 115.6875 C13.63863281 114.96949219 13.96476562 114.25148438 14.30078125 113.51171875 C16.34231992 106.17814686 14.00705914 99.54856942 11.9375 92.5 C11.62240479 91.39994629 11.30730957 90.29989258 10.98266602 89.16650391 C8.60662949 80.9244612 6.0917603 72.72653208 3.55859375 64.53173828 C1.22516761 56.91278802 -0.8279861 49.23950833 -2.7878418 41.5168457 C-4.01337072 36.70690302 -5.29375239 31.92651298 -6.70703125 27.16796875 C-7.12553345 25.75475342 -7.12553345 25.75475342 -7.55249023 24.31298828 C-8.08298687 22.53899746 -8.62222728 20.76758668 -9.17211914 18.99951172 C-10.7201147 13.81385667 -11.45212818 9.41958915 -11 4 C-7.76358807 0.19245656 -4.9302015 -0.94408114 0 0 Z " fill="#000000" transform="translate(481,101)"/>
<path d="M0 0 C0.09155996 37.44505822 0.16204097 74.89009958 0.20426132 112.3352471 C0.20926413 116.75621309 0.21444142 121.17717887 0.21972656 125.59814453 C0.2207758 126.47827741 0.22182505 127.35841028 0.22290608 128.26521385 C0.24031025 142.51530118 0.271848 156.76532395 0.30861118 171.01537299 C0.34602028 185.63776806 0.36823579 200.26012931 0.37635398 214.88257027 C0.38184182 223.90506751 0.39917326 232.92738226 0.43166587 241.94982332 C0.45281337 248.13726161 0.45919951 254.32460559 0.45400551 260.51207739 C0.45144408 264.08171334 0.45536425 267.65103044 0.4768219 271.22060966 C0.49993183 275.09339838 0.49194371 278.96577293 0.48101807 282.83862305 C0.49266943 283.96315006 0.5043208 285.08767708 0.51632524 286.24628067 C0.45874132 293.79136953 -0.67635482 299.14843802 -5.74609375 305.0234375 C-6.30425781 305.46945312 -6.86242187 305.91546875 -7.4375 306.375 C-8.27087891 307.06722656 -8.27087891 307.06722656 -9.12109375 307.7734375 C-13.67632164 310.74712057 -17.41108974 311.2341194 -22.8125 311.125 C-23.97394531 311.10695313 -25.13539063 311.08890625 -26.33203125 311.0703125 C-27.65267578 311.03550781 -27.65267578 311.03550781 -29 311 C-28.83757191 310.27794772 -28.67514382 309.55589544 -28.50779366 308.81196278 C-28.02412258 306.13358141 -27.87513401 303.72518937 -27.87530136 301.00859547 C-27.87291041 300.02248966 -27.87051946 299.03638385 -27.86805606 298.02039605 C-27.87048855 296.94453404 -27.87292104 295.86867202 -27.87542725 294.76020813 C-27.8740171 293.6114299 -27.87260695 292.46265167 -27.87115407 291.27906197 C-27.86813583 288.09440851 -27.86952961 284.90979145 -27.87268662 281.72513926 C-27.8749599 278.28873684 -27.87140891 274.85234045 -27.86836243 271.41593933 C-27.86427377 266.23291419 -27.86203284 261.04989367 -27.86194643 255.86686691 C-27.86174354 245.67841014 -27.8492742 235.49000087 -27.83233643 225.30155945 C-27.82973066 223.69675218 -27.82713185 222.0919449 -27.8245399 220.48713762 C-27.82060149 218.05504557 -27.81665495 215.62295354 -27.81267868 213.19086156 C-27.79773548 204.02348314 -27.7841097 194.85610327 -27.77197266 185.6887207 C-27.7708591 184.85081795 -27.76974553 184.0129152 -27.76859823 183.14962145 C-27.75103005 169.57698264 -27.74815373 156.00437365 -27.74982306 142.43172536 C-27.75110311 128.48937466 -27.73334136 114.54713476 -27.69880509 100.60482663 C-27.67817787 92.00962819 -27.67280041 83.41469535 -27.6871334 74.81948289 C-27.69560726 68.92542761 -27.68582244 63.03157844 -27.6618239 57.13756666 C-27.64854648 53.73963952 -27.64601444 50.34261604 -27.65994453 46.94462967 C-27.67381685 43.25417888 -27.65691702 39.565078 -27.63250732 35.87471008 C-27.6438627 34.81000168 -27.65521808 33.74529327 -27.66691756 32.64832097 C-27.54237668 22.9435216 -23.99270777 14.83731426 -17 8 C-5.53846154 0 -5.53846154 0 0 0 Z " fill="#F7626E" transform="translate(411,186)"/>
<path d="M0 0 C4.67034998 0.67254846 9.10289559 1.81850276 13.609375 3.18359375 C14.34291199 3.40260849 15.07644897 3.62162323 15.83221436 3.84727478 C17.40725739 4.31803323 18.98180896 4.79043857 20.5559082 5.26434326 C23.00952873 6.00286809 25.46451447 6.73667809 27.91992188 7.46923828 C32.16715455 8.7371856 36.41296718 10.00980861 40.65820312 11.28442383 C43.26151252 12.06595614 45.86511758 12.84649772 48.46875 13.62695312 C95.18330746 27.63857966 95.18330746 27.63857966 104.828125 45.453125 C107.37211956 50.98207318 109.49525598 56.60246593 110.75 62.5625 C111.1625 63.366875 111.575 64.17125 112 65 C113.92585938 65.32677734 113.92585938 65.32677734 115.890625 65.66015625 C119.64884455 66.50293656 119.64884455 66.50293656 121.12402344 68.59106445 C121.91909171 70.66997672 122.49005716 72.70870147 123 74.875 C123.20238281 75.59558594 123.40476562 76.31617187 123.61328125 77.05859375 C124.54455353 80.4985995 125 83.41908973 125 87 C124.34 87.4125 123.68 87.825 123 88.25 C120.61295242 89.93357873 120.61295242 89.93357873 120.68359375 93.3984375 C120.83190969 98.96215471 122.47606803 104.07661716 124.0625 109.375 C124.71107869 111.60895648 125.35816812 113.84334578 126.00390625 116.078125 C126.33664551 117.22216797 126.66938477 118.36621094 127.01220703 119.54492188 C128.5863449 125.05090289 130.03713462 130.58864278 131.5 136.125 C133.72131516 144.46725861 136.08321165 152.74974116 138.625 161 C140.77509402 167.98705587 142.92157585 174.97281341 144.9375 182 C145.14906738 182.7115625 145.36063477 183.423125 145.57861328 184.15625 C147.29090963 190.21850772 147.99716409 195.762438 145.375 201.625 C144.92253906 202.69621094 144.92253906 202.69621094 144.4609375 203.7890625 C140.45869633 209.84593015 135.34113444 211.96040144 128.625 213.8125 C127.88894531 214.02841797 127.15289062 214.24433594 126.39453125 214.46679688 C124.60017498 214.99112176 122.80057976 215.49746289 121 216 C120.93683594 215.25621094 120.87367188 214.51242188 120.80859375 213.74609375 C119.66156695 203.51944425 116.74907198 194.13131391 113.6640625 184.34765625 C112.45969869 180.52594005 111.35878383 176.71408153 110.4375 172.8125 C109.24270529 167.76539751 107.76549529 162.83268928 106.25 157.875 C103.84153403 149.97734896 101.62566449 142.0407727 99.5 134.0625 C97.17109293 125.32146271 94.77959411 116.60493006 92.27172852 107.91357422 C90.5954449 102.1007538 88.95998627 96.27773388 87.34350586 90.44799805 C85.91140104 85.29419588 84.45892407 80.14626569 83 75 C82.65388672 73.76999268 82.65388672 73.76999268 82.30078125 72.51513672 C77.50117614 55.61834508 70.46771589 41.73864004 54.87109375 32.5234375 C46.64458054 28.15834886 38.35327468 25.44287089 29.34375 23.171875 C23.09770332 21.54530034 16.98007516 19.48036109 10.85205078 17.46142578 C1.41396735 13.61381172 1.41396735 13.61381172 -8 14 C-6.6744419 10.37723685 -5.05653045 7.36494652 -2.875 4.1875 C-2.33617187 3.39730469 -1.79734375 2.60710938 -1.2421875 1.79296875 C-0.83226562 1.20128906 -0.42234375 0.60960937 0 0 Z " fill="#F6626E" transform="translate(350,15)"/>
<path d="M0 0 C5.93510328 1.13699905 11.81680316 2.40605702 17.68408203 3.85253906 C32.79956035 7.57595059 47.44389565 9.56016967 63 10 C64.10085937 10.03399902 65.20171875 10.06799805 66.3359375 10.10302734 C89.96741915 10.73970703 112.61984948 8.55752277 135.51977539 2.57543945 C139.44118014 1.55118894 142.90377696 0.70209287 147 1 C135.36133074 21.45080456 114.64833654 37.87734747 92.5 45.5 C73.32828293 50.38562528 54.74098138 47.00480767 37.78125 37.33984375 C23.39936787 28.718886 7.60641607 15.21283215 0 0 Z " fill="#F54853" transform="translate(182,19)"/>
</svg>
